<?xml version="1.0" encoding="UTF-8"?>
<svg id="Layer_1" data-name="Layer 1" xmlns="http://www.w3.org/2000/svg" viewBox="0 0 78.78 75.95">
  <defs>
    <style>
      .cls-1 {
        font-size: 17.32px;
      }

      .cls-1, .cls-2, .cls-3, .cls-4, .cls-5 {
        fill: #faf5db;
      }

      .cls-1, .cls-3 {
        font-family: SpringLP, 'Spring LP';
      }

      .cls-6 {
        letter-spacing: .09em;
      }

      .cls-7 {
        letter-spacing: .05em;
      }

      .cls-8 {
        letter-spacing: .08em;
      }

      .cls-9 {
        letter-spacing: .05em;
      }

      .cls-2 {
        stroke-width: 0px;
      }

      .cls-10 {
        letter-spacing: .08em;
      }

      .cls-3 {
        font-size: 43.31px;
        letter-spacing: .08em;
      }

      .cls-4 {
        font-family: Arboria-Bold, Arboria;
        font-size: 15.03px;
        font-weight: 700;
      }

      .cls-5 {
        stroke: #faf5db;
        stroke-miterlimit: 10;
      }
    </style>
  </defs>
  <text class="cls-3" transform="translate(-.35 31.35) scale(.87 1)"><tspan x="0" y="0">T</tspan></text>
  <text class="cls-3" transform="translate(5.77 52.35) scale(.87 1)"><tspan x="0" y="0">F</tspan></text>
  <text class="cls-1" transform="translate(21.02 21.17) scale(.87 1)"><tspan class="cls-10" x="0" y="0">e</tspan><tspan class="cls-6" x="6.91" y="0">m</tspan><tspan class="cls-7" x="19.7" y="0">p</tspan><tspan class="cls-10" x="28.98" y="0">s</tspan></text>
  <text class="cls-1" transform="translate(18.95 52.75) scale(.87 1)"><tspan class="cls-9" x="0" y="0">i</tspan><tspan class="cls-8" x="4.95" y="0">gé</tspan></text>
  <text class="cls-4" transform="translate(7.26 67.09) rotate(10) scale(.88 1.01) skewX(4.56)"><tspan x="0" y="0">P</tspan></text>
  <text class="cls-4" transform="translate(17.71 68.82) rotate(3.48) scale(.87 1.01) skewX(4.24)"><tspan x="0" y="0">h</tspan></text>
  <text class="cls-4" transform="translate(27.02 69.29) rotate(-5.16) scale(.86 1.02) skewX(3.49)"><tspan x="0" y="0">o</tspan></text>
  <text class="cls-4" transform="translate(36.88 68.12) rotate(-15.28) scale(.86 1.03) skewX(2.21)"><tspan x="0" y="0">t</tspan></text>
  <text class="cls-4" transform="translate(43.8 66.16) rotate(-28.14) scale(.85 1.04) skewX(.21)"><tspan x="0" y="0">o</tspan></text>
  <text class="cls-4" transform="translate(52.9 60.81) rotate(-45.44) scale(.86 1.03) skewX(-2.47)"><tspan x="0" y="0">g</tspan></text>
  <text class="cls-4" transform="translate(59.62 53.34) rotate(-58.53) scale(.87 1.02) skewX(-3.96)"><tspan x="0" y="0">r</tspan></text>
  <text class="cls-4" transform="translate(63.22 47.29) rotate(-68.94) scale(.88 1.01) skewX(-4.57)"><tspan x="0" y="0">a</tspan></text>
  <text class="cls-4" transform="translate(66.63 37.87) rotate(-78.29) scale(.89 1) skewX(-4.61)"><tspan x="0" y="0">p</tspan></text>
  <text class="cls-4" transform="translate(68.48 28.18) rotate(-85.1) scale(.9 .99) skewX(-4.33)"><tspan x="0" y="0">h</tspan></text>
  <text class="cls-4" transform="translate(69.18 19.01) rotate(-90.31) scale(.9 .98) skewX(-3.95)"><tspan x="0" y="0">y</tspan></text>
  <path class="cls-2" d="M51.08,34c-1.22,1.76-2.61,3.31-4.07,4.79-1.47,1.47-2.97,2.88-4.64,4.04,1.21-1.76,2.61-3.31,4.07-4.79,1.47-1.47,2.97-2.87,4.65-4.04h0Z"/>
  <path class="cls-5" d="M51.46,34.45c-.41-.14-.64-.63-.51-1.09.13-.46.57-.71.98-.57s.64.63.51,1.09c-.13.46-.57.71-.98.57Z"/>
  <path class="cls-5" d="M41.75,44.26c-.41-.14-.64-.63-.51-1.09.13-.46.57-.71.98-.57s.64.63.51,1.09-.57.71-.98.57Z"/>
  <path class="cls-2" d="M51.38,36.46c-.19.02-.37.01-.55,0-.16-.07-.32-.14-.48-.21l-.97-.41c-.06-.02-.1-.08-.12-.14l-.29-1.11c-.05-.19-.1-.37-.14-.56,0-.2.01-.41.03-.62.12.16.22.33.32.49.05.18.1.37.15.55l.29,1.11-.12-.14.97.41c.16.07.32.14.48.2.14.13.28.26.42.41,0,0-.13-.15,0,0h0Z"/>
  <path class="cls-2" d="M42.19,40.36c.19-.02.37-.02.55-.02.16.07.33.13.49.19l.98.37c.06.02.1.07.12.14l.32,1.1c.05.18.11.37.16.55,0,.2,0,.41-.02.62-.12-.16-.23-.32-.34-.48-.06-.18-.11-.37-.16-.55l-.32-1.1.12.14-.98-.37c-.16-.06-.32-.13-.49-.18-.15-.12-.29-.25-.43-.4,0,0,.14.15,0,0h0Z"/>
  <path class="cls-2" d="M42.41,33.82c1.65,1.2,3.13,2.64,4.57,4.15,1.43,1.52,2.8,3.1,3.98,4.89-1.65-1.2-3.13-2.64-4.57-4.15-1.43-1.52-2.8-3.1-3.98-4.89h0Z"/>
  <path class="cls-5" d="M42.76,33.33c-.08.49-.48.8-.89.7-.41-.1-.68-.58-.6-1.06s.48-.8.89-.7.68.58.6,1.06Z"/>
  <path class="cls-5" d="M52.26,43.4c-.08.49-.48.8-.89.7s-.68-.58-.6-1.06.48-.8.89-.7.68.58.6,1.06Z"/>
  <path class="cls-2" d="M44.5,33.21c.04.21.05.42.06.63-.05.19-.09.38-.13.57l-.25,1.15c-.02.07-.06.12-.11.15l-.93.45c-.16.07-.31.15-.47.22-.18.01-.35.03-.54.03.13-.15.26-.29.39-.42.15-.08.31-.15.46-.23l.93-.45-.11.15.25-1.15c.04-.19.09-.38.12-.57.1-.18.19-.35.31-.52,0,0-.12.17,0,0h0Z"/>
  <path class="cls-2" d="M48.84,43.32c-.04-.21-.06-.42-.08-.62.04-.19.08-.38.11-.58l.22-1.16c.01-.07.05-.12.11-.15l.92-.48c.15-.08.31-.16.46-.24.18-.02.35-.04.54-.05-.12.16-.25.3-.38.43-.15.08-.31.16-.46.24l-.92.48.11-.15-.22,1.16c-.04.19-.08.38-.11.58-.09.18-.18.36-.3.53,0,0,.11-.17,0,0h0Z"/>
  <path class="cls-2" d="M46.6,29.02c.36,3.33.45,6.66.48,10,0,3.34-.06,6.68-.4,10.01-.36-3.33-.46-6.66-.48-10,0-3.34.06-6.68.4-10.01h0Z"/>
  <path class="cls-5" d="M47.1,29.01c-.5.37-1.13.15-1.42-.48s-.13-1.45.37-1.82,1.13-.15,1.42.48.13,1.45-.37,1.82Z"/>
  <path class="cls-5" d="M47.23,51.27c-.5.37-1.13.15-1.42-.48s-.13-1.45.37-1.82,1.13-.15,1.42.48.13,1.45-.37,1.82Z"/>
  <path class="cls-2" d="M49.05,31.17c-.11.29-.25.58-.39.84-.41.26-1.41.91-1.83,1.19-.14.09-.3.08-.43,0-.41-.26-1.47-.92-1.87-1.17-.15-.27-.29-.54-.41-.83.28-.04.56-.05.83-.05.39.25,1.46.92,1.86,1.17h-.43c.43-.28,1.42-.91,1.83-1.19.27,0,.56,0,.83.04h0Z"/>
  <path class="cls-2" d="M44.32,46.69c.1-.29.23-.59.37-.85.4-.27,1.39-.96,1.8-1.25.13-.09.29-.09.42-.02.42.24,1.49.87,1.89,1.1.16.26.3.53.43.82-.28.05-.55.07-.83.08-.4-.23-1.48-.86-1.89-1.1l.42-.02c-.42.3-1.4.97-1.8,1.26-.27.02-.56.02-.83-.01h0Z"/>
  <path class="cls-2" d="M55.12,38.48c-2.89.4-5.79.49-8.7.5-2.91-.01-5.81-.11-8.7-.51,2.89-.4,5.79-.49,8.7-.5,2.91.01,5.81.11,8.7.51h0Z"/>
  <path class="cls-5" d="M55.12,39.05c-.32-.57-.13-1.3.43-1.64.55-.33,1.26-.14,1.58.43s.13,1.3-.43,1.64c-.55.33-1.26.14-1.58-.43Z"/>
  <path class="cls-5" d="M35.77,39.09c-.32-.57-.13-1.3.43-1.64.55-.33,1.26-.14,1.58.43.32.57.13,1.3-.43,1.64s-1.26.14-1.58-.43Z"/>
  <path class="cls-2" d="M53.24,41.29c-.25-.12-.5-.29-.73-.46-.23-.47-.79-1.63-1.02-2.11-.08-.16-.07-.34,0-.49.23-.47.81-1.68,1.03-2.14.23-.17.47-.33.73-.47.04.32.05.64.04.96-.22.45-.8,1.67-1.03,2.14v-.49c.24.49.79,1.64,1.03,2.11,0,.31,0,.64-.04.95h0Z"/>
  <path class="cls-2" d="M39.76,35.77c.25.12.51.27.74.43.24.47.83,1.6,1.08,2.08.08.15.08.34.01.49-.21.48-.76,1.71-.97,2.17-.23.18-.46.35-.71.49-.05-.32-.06-.64-.07-.95.2-.46.76-1.7.97-2.17v.49c-.24-.48-.82-1.61-1.07-2.08-.02-.31-.01-.64.02-.95h0Z"/>
</svg>